<svg xmlns="http://www.w3.org/2000/svg" width="512" height="512" style="shape-rendering:geometricPrecision;text-rendering:geometricPrecision;image-rendering:optimizeQuality;fill-rule:evenodd;clip-rule:evenodd"><path style="opacity:.982" d="M122.5 107.5c88.667-.167 177.334 0 266 .5 8.167 1.5 13 6.333 14.5 14.5.99 90.043.656 180.043-1 270-2.451 6.116-6.951 9.616-13.5 10.5-25.998.5-51.998.667-78 .5v-115h39a1973.1 1973.1 0 0 1 5-44h-44c-.167-11.338 0-22.672.5-34 .674-9.675 5.841-15.175 15.5-16.5 9.994-.5 19.994-.666 30-.5v-39a862.337 862.337 0 0 1-33.5-2c-28.765.53-47.099 14.53-55 42a459.2 459.2 0 0 0-1.5 50h-39v44h39v115c-48.001.167-96.001 0-144-.5-6.549-.884-11.049-4.384-13.5-10.5a9183.253 9183.253 0 0 1-1-270c1.681-8.179 6.514-13.179 14.5-15z"/></svg>