<svg aria-hidden="true" style="position: absolute; width: 0; height: 0; overflow: hidden;" version="1.1" xmlns="http://www.w3.org/2000/svg" xmlns:xlink="http://www.w3.org/1999/xlink">
<defs>
<symbol id="icon-facebook" viewBox="0 0 16 32">
<path   d="M14.322 17.688l0.77-4.892h-4.743v-3.18c0-1.338 0.662-2.645 2.78-2.645h2.187v-4.166c-1.273-0.203-2.56-0.313-3.85-0.329-3.904 0-6.452 2.347-6.452 6.589v3.73h-4.327v4.892h4.327v11.833h5.336v-11.833h3.973z"></path>
</symbol>
<symbol id="icon-instagram" viewBox="0 0 32 32">
<path fill="#fff" style="fill: var(--color1, #fff)" d="M11.495 15.999c0-2.489 2.017-4.508 4.505-4.508s4.507 2.019 4.507 4.508c0 2.489-2.018 4.508-4.507 4.508s-4.505-2.018-4.505-4.508zM9.059 15.999c0 3.835 3.108 6.944 6.942 6.944s6.942-3.109 6.942-6.944c0-3.835-3.108-6.944-6.942-6.944s-6.942 3.109-6.942 6.944zM21.595 8.78c-0 0.321 0.095 0.635 0.273 0.902s0.431 0.475 0.728 0.598c0.296 0.123 0.623 0.155 0.937 0.093s0.604-0.217 0.831-0.444c0.227-0.227 0.382-0.516 0.444-0.831s0.031-0.641-0.092-0.938c-0.123-0.297-0.33-0.55-0.597-0.728s-0.58-0.274-0.901-0.274h-0.001c-0.43 0-0.842 0.171-1.147 0.475s-0.475 0.717-0.476 1.147zM10.539 27.006c-1.318-0.060-2.034-0.279-2.51-0.465-0.631-0.246-1.081-0.538-1.555-1.012s-0.767-0.923-1.011-1.554c-0.186-0.476-0.405-1.193-0.465-2.511-0.066-1.425-0.079-1.854-0.079-5.465s0.014-4.038 0.079-5.465c0.060-1.318 0.281-2.034 0.465-2.511 0.246-0.631 0.538-1.082 1.011-1.555s0.923-0.767 1.555-1.011c0.476-0.186 1.192-0.405 2.51-0.465 1.425-0.066 1.853-0.079 5.461-0.079s4.037 0.014 5.463 0.079c1.318 0.060 2.033 0.281 2.51 0.465 0.631 0.245 1.081 0.538 1.555 1.011s0.765 0.924 1.011 1.555c0.186 0.476 0.405 1.193 0.465 2.511 0.065 1.427 0.078 1.854 0.078 5.465s-0.013 4.038-0.078 5.465c-0.060 1.318-0.281 2.035-0.465 2.511-0.246 0.631-0.538 1.082-1.011 1.554s-0.924 0.766-1.555 1.012c-0.476 0.186-1.192 0.405-2.51 0.465-1.425 0.066-1.853 0.079-5.463 0.079s-4.037-0.013-5.462-0.079zM10.427 2.558c-1.439 0.066-2.423 0.294-3.281 0.628-0.889 0.345-1.642 0.808-2.395 1.56s-1.214 1.506-1.559 2.395c-0.334 0.86-0.562 1.843-0.628 3.282-0.067 1.442-0.082 1.903-0.082 5.575s0.015 4.133 0.082 5.575c0.066 1.44 0.294 2.423 0.628 3.282 0.345 0.889 0.807 1.644 1.559 2.395s1.505 1.214 2.395 1.56c0.86 0.334 1.842 0.563 3.281 0.628 1.442 0.066 1.902 0.082 5.573 0.082s4.132-0.015 5.573-0.082c1.439-0.065 2.422-0.294 3.281-0.628 0.889-0.346 1.642-0.808 2.395-1.56s1.213-1.506 1.559-2.395c0.334-0.86 0.563-1.843 0.628-3.282 0.066-1.443 0.081-1.903 0.081-5.575s-0.015-4.133-0.081-5.575c-0.065-1.44-0.294-2.423-0.628-3.282-0.346-0.889-0.808-1.643-1.559-2.395s-1.506-1.215-2.394-1.56c-0.86-0.334-1.843-0.564-3.281-0.628-1.441-0.066-1.902-0.082-5.573-0.082s-4.132 0.015-5.575 0.082z"></path>
</symbol>
<symbol id="icon-telegramm" viewBox="0 0 32 32">
<path fill="#faf9fa" style="fill: var(--color2, #faf9fa)" d="M2.913 14.368c0 0 13.194-5.557 17.769-7.514 1.754-0.783 7.703-3.287 7.703-3.287s2.746-1.096 2.517 1.565c-0.076 1.096-0.686 4.931-1.296 9.079-0.915 5.87-1.907 12.288-1.907 12.288s-0.152 1.8-1.449 2.113c-1.296 0.313-3.432-1.096-3.813-1.409-0.305-0.235-5.72-3.757-7.703-5.479-0.534-0.47-1.144-1.409 0.076-2.505 2.746-2.583 6.025-5.792 8.008-7.827 0.915-0.939 1.83-3.131-1.983-0.47-5.415 3.835-10.753 7.435-10.753 7.435s-1.22 0.783-3.508 0.078c-2.288-0.704-4.957-1.644-4.957-1.644s-1.83-1.174 1.297-2.426z"></path>
</symbol>
<symbol id="icon-tiktok" viewBox="0 0 27 32">
<path fill="#000" style="fill: var(--color3, #000)" d="M19.099 12.25c1.81 1.288 3.978 1.976 6.198 1.968v-4.405c-0.437 0.001-0.872-0.046-1.298-0.139v3.509c-2.226 0.004-4.396-0.692-6.206-1.99v9.060c-0.005 1.487-0.413 2.944-1.179 4.218s-1.862 2.316-3.172 3.017c-1.31 0.701-2.785 1.034-4.269 0.963s-2.921-0.541-4.159-1.363c1.145 1.16 2.608 1.953 4.204 2.28s3.253 0.172 4.761-0.444 2.799-1.667 3.711-3.018c0.911-1.351 1.401-2.943 1.408-4.573v-9.082zM20.705 7.757c-0.92-0.999-1.485-2.274-1.606-3.627v-0.573h-1.232c0.152 0.86 0.484 1.679 0.973 2.402s1.125 1.336 1.866 1.797zM7.869 23.6c-0.427-0.559-0.689-1.227-0.755-1.927s0.065-1.406 0.379-2.035c0.314-0.63 0.799-1.158 1.398-1.526s1.29-0.559 1.993-0.553c0.388-0 0.774 0.059 1.144 0.176v-4.552c-0.433-0.057-0.869-0.082-1.306-0.073v3.539c-0.901-0.285-1.877-0.22-2.733 0.182s-1.529 1.112-1.886 1.988c-0.357 0.876-0.371 1.855-0.040 2.741s0.984 1.615 1.827 2.042h-0.022z"></path>
<path fill="#fff" style="fill: var(--color1, #fff)" d="M17.792 11.163c1.809 1.298 3.98 1.994 6.206 1.99v-3.509c-1.268-0.268-2.42-0.928-3.294-1.887-0.741-0.462-1.377-1.074-1.866-1.797s-0.821-1.542-0.973-2.402h-3.242v17.774c-0.003 0.787-0.252 1.553-0.712 2.191s-1.108 1.115-1.854 1.366c-0.745 0.25-1.55 0.261-2.301 0.030s-1.412-0.692-1.888-1.317c-0.755-0.381-1.36-1.006-1.717-1.774s-0.445-1.633-0.25-2.457c0.195-0.824 0.662-1.558 1.324-2.084s1.483-0.813 2.329-0.815c0.388 0.001 0.774 0.061 1.144 0.176v-3.539c-1.601 0.038-3.156 0.544-4.474 1.454s-2.341 2.186-2.945 3.671c-0.604 1.484-0.761 3.113-0.453 4.686s1.068 3.021 2.187 4.168c1.238 0.827 2.677 1.303 4.164 1.377s2.966-0.258 4.28-0.959c1.314-0.702 2.412-1.746 3.179-3.024s1.174-2.738 1.177-4.229l-0.022-9.089z"></path>
<path fill="#000" style="fill: var(--color3, #000)" d="M23.998 9.642v-0.947c-1.165 0.005-2.307-0.321-3.294-0.94 0.871 0.961 2.024 1.622 3.294 1.887zM17.866 3.555c0-0.169-0.051-0.345-0.073-0.514v-0.573h-4.474v17.782c-0.004 0.996-0.402 1.949-1.108 2.651s-1.66 1.095-2.655 1.093c-0.586 0.003-1.164-0.133-1.687-0.396 0.476 0.626 1.137 1.086 1.888 1.317s1.556 0.221 2.301-0.030c0.745-0.25 1.393-0.728 1.854-1.366s0.709-1.404 0.712-2.191v-17.774h3.242zM10.699 13.1v-1.006c-1.841-0.25-3.713 0.131-5.31 1.082s-2.825 2.415-3.485 4.153c-0.659 1.739-0.711 3.65-0.146 5.422s1.712 3.3 3.256 4.335c-1.11-1.149-1.862-2.597-2.164-4.167s-0.14-3.194 0.465-4.673c0.605-1.48 1.628-2.751 2.943-3.658s2.866-1.412 4.463-1.451l-0.022-0.037z"></path>
</symbol>
<symbol id="icon-twitter" viewBox="0 0 32 32">
<path fill="#fff" style="fill: var(--color1, #fff)" d="M29.67 7.354c-0.892 0.384-1.83 0.652-2.791 0.796 0.449-0.077 1.11-0.886 1.373-1.214 0.399-0.494 0.704-1.058 0.898-1.663 0-0.045 0.045-0.109 0-0.141-0.023-0.012-0.048-0.019-0.074-0.019s-0.051 0.006-0.074 0.019c-1.043 0.565-2.153 0.997-3.304 1.284-0.040 0.012-0.083 0.013-0.124 0.003s-0.078-0.031-0.107-0.061c-0.090-0.107-0.186-0.208-0.289-0.302-0.469-0.421-1.002-0.766-1.578-1.021-0.778-0.319-1.618-0.458-2.457-0.405-0.814 0.051-1.609 0.27-2.336 0.642-0.715 0.392-1.344 0.925-1.848 1.567-0.53 0.66-0.913 1.427-1.123 2.248-0.173 0.781-0.193 1.588-0.058 2.376 0 0.135 0 0.154-0.116 0.135-4.575-0.674-8.328-2.299-11.395-5.786-0.135-0.154-0.205-0.154-0.314 0-1.335 2.029-0.687 5.24 0.982 6.827 0.225 0.212 0.456 0.417 0.699 0.61-0.765-0.054-1.511-0.262-2.194-0.61-0.128-0.083-0.199-0.039-0.205 0.116-0.018 0.214-0.018 0.429 0 0.642 0.134 1.024 0.537 1.994 1.168 2.811s1.468 1.451 2.425 1.838c0.233 0.1 0.476 0.175 0.725 0.225-0.708 0.14-1.434 0.161-2.149 0.064-0.154-0.032-0.212 0.051-0.154 0.199 0.943 2.569 2.99 3.352 4.491 3.789 0.205 0.032 0.411 0.032 0.642 0.084 0 0 0 0-0.039 0.039-0.443 0.809-2.233 1.355-3.054 1.638-1.499 0.539-3.097 0.745-4.684 0.604-0.25-0.039-0.308-0.032-0.372 0s0 0.103 0.071 0.167c0.321 0.212 0.642 0.398 0.975 0.578 0.993 0.542 2.043 0.973 3.131 1.284 5.633 1.554 11.973 0.411 16.201-3.795 3.324-3.301 4.491-7.854 4.491-12.414 0-0.173 0.212-0.276 0.334-0.366 0.841-0.656 1.582-1.43 2.201-2.299 0.107-0.13 0.162-0.294 0.154-0.462 0-0.096 0-0.077-0.122-0.026z"></path>
</symbol>
<symbol id="icon-youtube" viewBox="0 0 32 32">
<path fill="#fff" style="fill: var(--color1, #fff)" d="M30.76 8.568c-0.353-1.326-1.397-2.373-2.725-2.732-2.401-0.644-12.035-0.644-12.035-0.644s-9.629 0-12.035 0.644c-1.323 0.354-2.367 1.4-2.725 2.732-0.642 2.407-0.642 7.433-0.642 7.433s0 5.026 0.642 7.433c0.353 1.326 1.397 2.373 2.725 2.732 2.406 0.644 12.035 0.644 12.035 0.644s9.634 0 12.035-0.644c1.323-0.354 2.367-1.4 2.725-2.732 0.642-2.407 0.642-7.433 0.642-7.433s0-5.026-0.642-7.433z"></path>
<path fill="#000" style="fill: var(--color3, #000)" d="M12.923 20.634l8.002-4.633-8.002-4.633v9.266z"></path>
</symbol>
<symbol id="icon-facebook1" viewBox="0 0 20 20">
<path d="M17 1h-14c-1.1 0-2 0.9-2 2v14c0 1.101 0.9 2 2 2h7v-7h-2v-2.475h2v-2.050c0-2.164 1.212-3.684 3.766-3.684l1.803 0.002v2.605h-1.197c-0.994 0-1.372 0.746-1.372 1.438v1.69h2.568l-0.568 2.474h-2v7h4c1.1 0 2-0.899 2-2v-14c0-1.1-0.9-2-2-2z"></path>
</symbol>
<symbol id="icon-facebook2" viewBox="0 0 32 32">
<path d="M29 0h-26c-1.65 0-3 1.35-3 3v26c0 1.65 1.35 3 3 3h13v-14h-4v-4h4v-2c0-3.306 2.694-6 6-6h4v4h-4c-1.1 0-2 0.9-2 2v2h6l-1 4h-5v14h9c1.65 0 3-1.35 3-3v-26c0-1.65-1.35-3-3-3z"></path>
</symbol>
</defs>
</svg>
